<svg width="516" height="542" viewBox="0 0 516 542" fill="none" xmlns="http://www.w3.org/2000/svg">
<mask id="path-1-inside-1_588_8" fill="white">
<path d="M10.6682 435.554C4.64894 432.883 0.742305 426.928 0.742305 420.342V420.342C0.75937 416.869 0.767902 413.418 0.767902 409.99C0.784967 406.606 0.793499 403.236 0.793499 399.879C0.793499 396.54 0.802031 393.205 0.819096 389.875C0.819096 386.563 0.819096 383.255 0.819096 379.951C0.819096 376.648 0.819096 373.353 0.819096 370.068C0.819096 366.782 0.819096 363.501 0.819096 360.224C0.83616 356.948 0.844692 353.671 0.844692 350.395C0.844692 347.127 0.844692 343.864 0.844692 340.605C0.844692 337.346 0.844692 334.087 0.844692 330.829C0.844692 327.57 0.844692 324.311 0.844692 321.052C0.844692 317.802 0.83616 314.552 0.819096 311.303C0.819096 308.053 0.819096 304.803 0.819096 301.553C0.819096 298.312 0.819096 295.067 0.819096 291.817C0.819096 288.576 0.810563 285.331 0.793499 282.081C0.793499 278.84 0.793499 275.594 0.793499 272.345C0.793499 269.104 0.784967 265.863 0.767902 262.622C0.767902 259.372 0.767902 256.127 0.767902 252.886C0.750838 249.636 0.742305 246.386 0.742305 243.136C0.742305 239.895 0.733773 236.65 0.716709 233.4C0.716709 230.141 0.708176 226.887 0.691112 223.637C0.691112 220.378 0.68258 217.119 0.665515 213.861C0.648451 210.602 0.639918 207.343 0.639918 204.084C0.622854 200.817 0.60579 197.549 0.588725 194.281C0.588725 191.005 0.580193 187.728 0.563128 184.451C0.546064 181.175 0.528999 177.889 0.511935 174.595C0.49487 171.309 0.477806 168.015 0.460741 164.711C0.443677 161.408 0.426612 158.095 0.409548 154.774C0.392483 151.444 0.366887 148.105 0.332758 144.757C0.315693 141.391 0.290096 138.016 0.255967 134.632C0.221838 131.204 0.187709 127.749 0.15358 124.267V124.267C0.0584426 117.63 3.89154 111.574 9.88724 108.727C11.5989 107.914 13.3116 107.094 15.0253 106.267C20.0422 103.776 25.0507 101.259 30.0506 98.7142C35.0505 96.1518 40.0504 93.576 45.0503 90.9869C50.0502 88.3799 55.0501 85.7728 60.0499 83.1658C65.0328 80.5409 70.0241 77.9205 75.024 75.3046C80.0239 72.6797 85.0238 70.0548 90.0237 67.4299C95.0236 64.814 100.015 62.1935 104.998 59.5687C109.998 56.9616 114.998 54.3547 119.998 51.7477C124.997 49.1496 129.997 46.5559 134.997 43.9668C139.997 41.3865 145.005 38.8152 150.022 36.2528C155.022 33.7083 160.031 31.1772 165.048 28.6594C170.065 26.1595 175.082 23.6819 180.099 21.2267C185.116 18.8072 190.141 16.4234 195.175 14.0753C200.226 11.8164 205.286 9.62454 210.354 7.49963C215.456 5.58008 220.576 3.82578 225.712 2.23657C229.649 1.40598 233.614 0.777088 237.61 0.349964C240.182 0.0749288 242.777 0.0748403 245.351 0.34041C249.491 0.767687 253.661 1.39976 257.862 2.23657C263.442 3.82578 269.047 5.58008 274.679 7.49963C280.327 9.62454 285.984 11.8164 291.649 14.0753C297.332 16.4234 303.023 18.8072 308.722 21.2267C314.422 23.6819 320.121 26.1595 325.821 28.6594C331.537 31.1772 337.246 33.7083 342.945 36.2528C348.662 38.8152 354.378 41.3865 360.095 43.9668C365.812 46.5559 371.528 49.1496 377.245 51.7477C382.961 54.3547 388.686 56.9616 394.42 59.5687C400.137 62.1935 405.853 64.814 411.57 67.4299C417.304 70.0548 423.029 72.6797 428.745 75.3046C434.462 77.9205 440.187 80.5409 445.921 83.1658C451.637 85.7728 457.354 88.3799 463.071 90.9869C468.804 93.576 474.529 96.1518 480.246 98.7142C485.946 101.259 491.654 103.776 497.37 106.267C499.703 107.258 502.037 108.239 504.37 109.21C510.476 111.751 514.528 117.654 514.622 124.267V124.267C514.657 127.749 514.691 131.204 514.725 134.632C514.759 138.016 514.785 141.391 514.802 144.757C514.836 148.105 514.861 151.444 514.878 154.774C514.896 158.095 514.913 161.408 514.93 164.711C514.947 168.015 514.964 171.309 514.981 174.595C514.998 177.889 515.015 181.175 515.032 184.451C515.049 187.728 515.058 191.005 515.058 194.281C515.075 197.549 515.092 200.817 515.109 204.084C515.109 207.343 515.117 210.602 515.134 213.861C515.151 217.119 515.16 220.378 515.16 223.637C515.177 226.887 515.185 230.141 515.185 233.4C515.203 236.65 515.211 239.895 515.211 243.136C515.211 246.386 515.22 249.636 515.237 252.886C515.237 256.127 515.237 259.372 515.237 262.622C515.254 265.863 515.262 269.104 515.262 272.345C515.262 275.594 515.262 278.84 515.262 282.081C515.279 285.331 515.288 288.576 515.288 291.817C515.288 295.067 515.288 298.312 515.288 301.553C515.288 304.803 515.288 308.053 515.288 311.303C515.305 314.552 515.314 317.802 515.314 321.052C515.314 324.311 515.314 327.57 515.314 330.829C515.314 334.087 515.314 337.346 515.314 340.605C515.314 343.864 515.314 347.127 515.314 350.395C515.314 353.671 515.305 356.948 515.288 360.224C515.288 363.501 515.288 366.782 515.288 370.068C515.288 373.353 515.288 376.648 515.288 379.951C515.288 383.255 515.288 386.563 515.288 389.875C515.271 393.205 515.262 396.54 515.262 399.879C515.262 403.236 515.254 406.606 515.237 409.99C515.237 413.418 515.228 416.869 515.211 420.342V420.342C515.211 426.916 511.21 432.811 505.151 435.36C503.001 436.265 500.851 437.178 498.701 438.1C493.206 440.52 487.712 442.962 482.217 445.426C476.722 447.926 471.227 450.435 465.733 452.952C460.238 455.488 454.735 458.024 449.223 460.559C443.728 463.113 438.233 465.662 432.738 468.206C427.244 470.76 421.749 473.313 416.254 475.866C410.759 478.411 405.265 480.956 399.77 483.5C394.275 486.045 388.78 488.585 383.286 491.12C377.791 493.647 372.296 496.169 366.801 498.687C361.307 501.196 355.812 503.696 350.317 506.187C344.822 508.669 339.327 511.137 333.833 513.592C328.338 516.012 322.852 518.423 317.374 520.824C311.879 523.172 306.393 525.489 300.915 527.775C295.438 529.971 289.968 532.1 284.508 534.163C279.047 536.029 273.595 537.739 268.151 539.292C264.007 540.106 259.867 540.721 255.732 541.137C253.216 541.39 250.681 541.389 248.166 541.132C244.106 540.716 240.052 540.103 236.002 539.292C230.729 537.739 225.456 536.029 220.183 534.163C214.944 532.1 209.706 529.971 204.467 527.775C199.228 525.489 193.989 523.172 188.75 520.824C183.512 518.423 178.281 516.012 173.06 513.592C167.838 511.137 162.608 508.669 157.369 506.187C152.147 503.696 146.925 501.196 141.704 498.687C136.482 496.169 131.26 493.647 126.038 491.12C120.8 488.585 115.569 486.045 110.348 483.5C105.126 480.956 99.9041 478.411 94.6823 475.866C89.4606 473.313 84.2389 470.76 79.0171 468.206C73.7954 465.662 68.5737 463.113 63.3519 460.559C58.1302 458.024 52.917 455.488 47.7123 452.952C42.4906 450.435 37.2688 447.926 32.0471 445.426C26.8083 442.962 21.5781 440.52 16.3563 438.1C14.4592 437.244 12.5631 436.395 10.6682 435.554Z"/>
</mask>
<path d="M10.6682 435.554C4.64894 432.883 0.742305 426.928 0.742305 420.342V420.342C0.75937 416.869 0.767902 413.418 0.767902 409.99C0.784967 406.606 0.793499 403.236 0.793499 399.879C0.793499 396.54 0.802031 393.205 0.819096 389.875C0.819096 386.563 0.819096 383.255 0.819096 379.951C0.819096 376.648 0.819096 373.353 0.819096 370.068C0.819096 366.782 0.819096 363.501 0.819096 360.224C0.83616 356.948 0.844692 353.671 0.844692 350.395C0.844692 347.127 0.844692 343.864 0.844692 340.605C0.844692 337.346 0.844692 334.087 0.844692 330.829C0.844692 327.57 0.844692 324.311 0.844692 321.052C0.844692 317.802 0.83616 314.552 0.819096 311.303C0.819096 308.053 0.819096 304.803 0.819096 301.553C0.819096 298.312 0.819096 295.067 0.819096 291.817C0.819096 288.576 0.810563 285.331 0.793499 282.081C0.793499 278.84 0.793499 275.594 0.793499 272.345C0.793499 269.104 0.784967 265.863 0.767902 262.622C0.767902 259.372 0.767902 256.127 0.767902 252.886C0.750838 249.636 0.742305 246.386 0.742305 243.136C0.742305 239.895 0.733773 236.65 0.716709 233.4C0.716709 230.141 0.708176 226.887 0.691112 223.637C0.691112 220.378 0.68258 217.119 0.665515 213.861C0.648451 210.602 0.639918 207.343 0.639918 204.084C0.622854 200.817 0.60579 197.549 0.588725 194.281C0.588725 191.005 0.580193 187.728 0.563128 184.451C0.546064 181.175 0.528999 177.889 0.511935 174.595C0.49487 171.309 0.477806 168.015 0.460741 164.711C0.443677 161.408 0.426612 158.095 0.409548 154.774C0.392483 151.444 0.366887 148.105 0.332758 144.757C0.315693 141.391 0.290096 138.016 0.255967 134.632C0.221838 131.204 0.187709 127.749 0.15358 124.267V124.267C0.0584426 117.63 3.89154 111.574 9.88724 108.727C11.5989 107.914 13.3116 107.094 15.0253 106.267C20.0422 103.776 25.0507 101.259 30.0506 98.7142C35.0505 96.1518 40.0504 93.576 45.0503 90.9869C50.0502 88.3799 55.0501 85.7728 60.0499 83.1658C65.0328 80.5409 70.0241 77.9205 75.024 75.3046C80.0239 72.6797 85.0238 70.0548 90.0237 67.4299C95.0236 64.814 100.015 62.1935 104.998 59.5687C109.998 56.9616 114.998 54.3547 119.998 51.7477C124.997 49.1496 129.997 46.5559 134.997 43.9668C139.997 41.3865 145.005 38.8152 150.022 36.2528C155.022 33.7083 160.031 31.1772 165.048 28.6594C170.065 26.1595 175.082 23.6819 180.099 21.2267C185.116 18.8072 190.141 16.4234 195.175 14.0753C200.226 11.8164 205.286 9.62454 210.354 7.49963C215.456 5.58008 220.576 3.82578 225.712 2.23657C229.649 1.40598 233.614 0.777088 237.61 0.349964C240.182 0.0749288 242.777 0.0748403 245.351 0.34041C249.491 0.767687 253.661 1.39976 257.862 2.23657C263.442 3.82578 269.047 5.58008 274.679 7.49963C280.327 9.62454 285.984 11.8164 291.649 14.0753C297.332 16.4234 303.023 18.8072 308.722 21.2267C314.422 23.6819 320.121 26.1595 325.821 28.6594C331.537 31.1772 337.246 33.7083 342.945 36.2528C348.662 38.8152 354.378 41.3865 360.095 43.9668C365.812 46.5559 371.528 49.1496 377.245 51.7477C382.961 54.3547 388.686 56.9616 394.42 59.5687C400.137 62.1935 405.853 64.814 411.57 67.4299C417.304 70.0548 423.029 72.6797 428.745 75.3046C434.462 77.9205 440.187 80.5409 445.921 83.1658C451.637 85.7728 457.354 88.3799 463.071 90.9869C468.804 93.576 474.529 96.1518 480.246 98.7142C485.946 101.259 491.654 103.776 497.37 106.267C499.703 107.258 502.037 108.239 504.37 109.21C510.476 111.751 514.528 117.654 514.622 124.267V124.267C514.657 127.749 514.691 131.204 514.725 134.632C514.759 138.016 514.785 141.391 514.802 144.757C514.836 148.105 514.861 151.444 514.878 154.774C514.896 158.095 514.913 161.408 514.93 164.711C514.947 168.015 514.964 171.309 514.981 174.595C514.998 177.889 515.015 181.175 515.032 184.451C515.049 187.728 515.058 191.005 515.058 194.281C515.075 197.549 515.092 200.817 515.109 204.084C515.109 207.343 515.117 210.602 515.134 213.861C515.151 217.119 515.16 220.378 515.16 223.637C515.177 226.887 515.185 230.141 515.185 233.4C515.203 236.65 515.211 239.895 515.211 243.136C515.211 246.386 515.22 249.636 515.237 252.886C515.237 256.127 515.237 259.372 515.237 262.622C515.254 265.863 515.262 269.104 515.262 272.345C515.262 275.594 515.262 278.84 515.262 282.081C515.279 285.331 515.288 288.576 515.288 291.817C515.288 295.067 515.288 298.312 515.288 301.553C515.288 304.803 515.288 308.053 515.288 311.303C515.305 314.552 515.314 317.802 515.314 321.052C515.314 324.311 515.314 327.57 515.314 330.829C515.314 334.087 515.314 337.346 515.314 340.605C515.314 343.864 515.314 347.127 515.314 350.395C515.314 353.671 515.305 356.948 515.288 360.224C515.288 363.501 515.288 366.782 515.288 370.068C515.288 373.353 515.288 376.648 515.288 379.951C515.288 383.255 515.288 386.563 515.288 389.875C515.271 393.205 515.262 396.54 515.262 399.879C515.262 403.236 515.254 406.606 515.237 409.99C515.237 413.418 515.228 416.869 515.211 420.342V420.342C515.211 426.916 511.21 432.811 505.151 435.36C503.001 436.265 500.851 437.178 498.701 438.1C493.206 440.52 487.712 442.962 482.217 445.426C476.722 447.926 471.227 450.435 465.733 452.952C460.238 455.488 454.735 458.024 449.223 460.559C443.728 463.113 438.233 465.662 432.738 468.206C427.244 470.76 421.749 473.313 416.254 475.866C410.759 478.411 405.265 480.956 399.77 483.5C394.275 486.045 388.78 488.585 383.286 491.12C377.791 493.647 372.296 496.169 366.801 498.687C361.307 501.196 355.812 503.696 350.317 506.187C344.822 508.669 339.327 511.137 333.833 513.592C328.338 516.012 322.852 518.423 317.374 520.824C311.879 523.172 306.393 525.489 300.915 527.775C295.438 529.971 289.968 532.1 284.508 534.163C279.047 536.029 273.595 537.739 268.151 539.292C264.007 540.106 259.867 540.721 255.732 541.137C253.216 541.39 250.681 541.389 248.166 541.132C244.106 540.716 240.052 540.103 236.002 539.292C230.729 537.739 225.456 536.029 220.183 534.163C214.944 532.1 209.706 529.971 204.467 527.775C199.228 525.489 193.989 523.172 188.75 520.824C183.512 518.423 178.281 516.012 173.06 513.592C167.838 511.137 162.608 508.669 157.369 506.187C152.147 503.696 146.925 501.196 141.704 498.687C136.482 496.169 131.26 493.647 126.038 491.12C120.8 488.585 115.569 486.045 110.348 483.5C105.126 480.956 99.9041 478.411 94.6823 475.866C89.4606 473.313 84.2389 470.76 79.0171 468.206C73.7954 465.662 68.5737 463.113 63.3519 460.559C58.1302 458.024 52.917 455.488 47.7123 452.952C42.4906 450.435 37.2688 447.926 32.0471 445.426C26.8083 442.962 21.5781 440.52 16.3563 438.1C14.4592 437.244 12.5631 436.395 10.6682 435.554Z" fill="#A00E00" stroke="#9C0000" stroke-width="6" mask="url(#path-1-inside-1_588_8)"/>
</svg>
