<svg width="390" height="262" viewBox="0 0 390 262" fill="none" xmlns="http://www.w3.org/2000/svg">
<mask id="path-1-inside-1_433_46" fill="white">
<path d="M1.89379 435.464C-4.12547 432.793 -8.03211 426.838 -8.03211 420.252C-8.01504 416.779 -8.00651 413.328 -8.00651 409.9C-7.98945 406.516 -7.98092 403.146 -7.98092 399.789C-7.98092 396.45 -7.97238 393.115 -7.95532 389.785C-7.95532 386.472 -7.95532 383.165 -7.95532 379.861C-7.95532 376.558 -7.95532 373.263 -7.95532 369.978C-7.95532 366.692 -7.95532 363.411 -7.95532 360.134C-7.93825 356.858 -7.92972 353.581 -7.92972 350.304C-7.92972 347.037 -7.92972 343.773 -7.92972 340.515C-7.92972 337.256 -7.92972 333.997 -7.92972 330.738C-7.92972 327.48 -7.92972 324.221 -7.92972 320.962C-7.92972 317.712 -7.93825 314.462 -7.95532 311.212C-7.95532 307.963 -7.95532 304.713 -7.95532 301.463C-7.95532 298.222 -7.95532 294.977 -7.95532 291.727C-7.95532 288.486 -7.96385 285.24 -7.98092 281.991C-7.98092 278.75 -7.98092 275.504 -7.98092 272.254C-7.98092 269.013 -7.98945 265.773 -8.00651 262.532C-8.00651 259.282 -8.00651 256.036 -8.00651 252.796C-8.02358 249.546 -8.03211 246.296 -8.03211 243.046C-8.03211 239.805 -8.04064 236.56 -8.05771 233.31C-8.05771 230.051 -8.06624 226.797 -8.0833 223.547C-8.0833 220.288 -8.09183 217.029 -8.1089 213.771C-8.12596 210.512 -8.1345 207.253 -8.1345 203.994C-8.15156 200.726 -8.16862 197.459 -8.18569 194.191C-8.18569 190.914 -8.19422 187.638 -8.21129 184.361C-8.22835 181.085 -8.24541 177.799 -8.26248 174.504C-8.27954 171.219 -8.29661 167.924 -8.31367 164.621C-8.33074 161.318 -8.3478 158.005 -8.36487 154.684C-8.38193 151.354 -8.40753 148.015 -8.44166 144.667C-8.45872 141.301 -8.48432 137.926 -8.51845 134.542C-8.55258 131.114 -8.5867 127.658 -8.62083 124.176C-8.71597 117.54 -4.88287 111.484 1.11283 108.636C2.82451 107.823 4.53719 107.004 6.25087 106.177C11.2678 103.686 16.2763 101.169 21.2762 98.624C26.2761 96.0616 31.2759 93.4859 36.2758 90.8967C41.2757 88.2897 46.2756 85.6827 51.2755 83.0757C56.2584 80.4508 61.2497 77.8304 66.2496 75.2144C71.2495 72.5895 76.2494 69.9646 81.2493 67.3398C86.2492 64.7238 91.2406 62.1034 96.2234 59.4785C101.223 56.8715 106.223 54.2645 111.223 51.6575C116.223 49.0594 121.223 46.4658 126.223 43.8766C131.223 41.2964 136.231 38.725 141.248 36.1626C146.248 33.6181 151.256 31.087 156.273 28.5693C161.29 26.0694 166.307 23.5918 171.324 21.1365C176.341 18.717 181.367 16.3332 186.401 13.9851C191.452 11.7263 196.511 9.53436 201.58 7.40948C206.682 5.48993 211.801 3.73566 216.938 2.14642C220.874 1.31586 224.84 0.686951 228.835 0.259827C231.408 -0.0151978 234.003 -0.0153198 236.576 0.250244C240.717 0.677551 244.887 1.30963 249.087 2.14642C254.667 3.73566 260.273 5.48993 265.904 7.40948C271.553 9.53436 277.209 11.7263 282.875 13.9851C288.557 16.3332 294.248 18.717 299.948 21.1365C305.647 23.5918 311.347 26.0694 317.046 28.5693C322.763 31.087 328.471 33.6181 334.171 36.1626C339.887 38.725 345.604 41.2964 351.321 43.8766C357.037 46.4658 362.754 49.0594 368.47 51.6575C374.187 54.2645 379.912 56.8715 385.646 59.4785C391.362 62.1034 397.079 64.7238 402.796 67.3398C408.529 69.9646 414.254 72.5895 419.971 75.2144C425.688 77.8304 431.413 80.4508 437.146 83.0757C442.863 85.6827 448.58 88.2897 454.296 90.8967C460.03 93.4859 465.755 96.0616 471.472 98.624C477.171 101.169 482.879 103.686 488.596 106.177C490.929 107.168 493.262 108.148 495.595 109.119C501.701 111.661 505.753 117.563 505.848 124.176C505.882 127.658 505.916 131.114 505.95 134.542C505.984 137.926 506.01 141.301 506.027 144.667C506.061 148.015 506.087 151.354 506.104 154.684C506.121 158.005 506.138 161.318 506.155 164.621C506.172 167.924 506.189 171.219 506.206 174.504C506.224 177.799 506.241 181.085 506.258 184.361C506.275 187.638 506.283 190.914 506.283 194.191C506.3 197.459 506.317 200.726 506.334 203.994C506.334 207.253 506.343 210.512 506.36 213.771C506.377 217.029 506.386 220.288 506.386 223.547C506.403 226.797 506.411 230.051 506.411 233.31C506.428 236.56 506.437 239.805 506.437 243.046C506.437 246.296 506.445 249.546 506.462 252.796C506.462 256.036 506.462 259.282 506.462 262.532C506.479 265.773 506.488 269.013 506.488 272.254C506.488 275.504 506.488 278.75 506.488 281.991C506.505 285.24 506.514 288.486 506.514 291.727C506.514 294.977 506.514 298.222 506.514 301.463C506.514 304.713 506.514 307.963 506.514 311.212C506.531 314.462 506.539 317.712 506.539 320.962C506.539 324.221 506.539 327.48 506.539 330.738C506.539 333.997 506.539 337.256 506.539 340.515C506.539 343.773 506.539 347.037 506.539 350.304C506.539 353.581 506.531 356.858 506.514 360.134C506.514 363.411 506.514 366.692 506.514 369.978C506.514 373.263 506.514 376.558 506.514 379.861C506.514 383.165 506.514 386.472 506.514 389.785C506.496 393.115 506.488 396.45 506.488 399.789C506.488 403.146 506.479 406.516 506.462 409.9C506.462 413.328 506.454 416.779 506.437 420.252C506.437 426.826 502.436 432.721 496.377 435.27C494.227 436.175 492.077 437.088 489.927 438.01C484.432 440.43 478.937 442.872 473.443 445.336C467.948 447.836 462.453 450.344 456.958 452.862C451.464 455.398 445.96 457.933 440.448 460.469C434.954 463.022 429.459 465.571 423.964 468.116C418.469 470.669 412.975 473.223 407.48 475.776C401.985 478.321 396.49 480.865 390.995 483.41C385.501 485.954 380.006 488.494 374.511 491.03C369.016 493.557 363.522 496.079 358.027 498.597C352.532 501.106 347.037 503.605 341.543 506.096C336.048 508.578 330.553 511.047 325.058 513.502C319.563 515.922 314.077 518.332 308.6 520.734C303.105 523.082 297.618 525.399 292.141 527.685C286.663 529.881 281.194 532.01 275.733 534.073C270.273 535.939 264.821 537.648 259.377 539.202C255.232 540.016 251.092 540.631 246.958 541.047C244.442 541.3 241.907 541.299 239.391 541.041C235.332 540.626 231.277 540.013 227.227 539.202C221.955 537.648 216.682 535.939 211.409 534.073C206.17 532.01 200.931 529.881 195.692 527.685C190.454 525.399 185.215 523.082 179.976 520.734C174.737 518.332 169.507 515.922 164.285 513.502C159.063 511.047 153.833 508.578 148.594 506.096C143.373 503.605 138.151 501.106 132.929 498.597C127.707 496.079 122.486 493.557 117.264 491.03C112.025 488.494 106.795 485.954 101.573 483.41C96.3514 480.865 91.1297 478.321 85.9079 475.776C80.6862 473.223 75.4645 470.669 70.2427 468.116C65.021 465.571 59.7992 463.022 54.5775 460.469C49.3558 457.933 44.1426 455.398 38.9379 452.862C33.7162 450.344 28.4944 447.836 23.2727 445.336C18.0339 442.872 12.8036 440.43 7.5819 438.01C5.68474 437.154 3.7887 436.305 1.89379 435.464Z"/>
</mask>
<path d="M1.89379 435.464C-4.12547 432.793 -8.03211 426.838 -8.03211 420.252C-8.01504 416.779 -8.00651 413.328 -8.00651 409.9C-7.98945 406.516 -7.98092 403.146 -7.98092 399.789C-7.98092 396.45 -7.97238 393.115 -7.95532 389.785C-7.95532 386.472 -7.95532 383.165 -7.95532 379.861C-7.95532 376.558 -7.95532 373.263 -7.95532 369.978C-7.95532 366.692 -7.95532 363.411 -7.95532 360.134C-7.93825 356.858 -7.92972 353.581 -7.92972 350.304C-7.92972 347.037 -7.92972 343.773 -7.92972 340.515C-7.92972 337.256 -7.92972 333.997 -7.92972 330.738C-7.92972 327.48 -7.92972 324.221 -7.92972 320.962C-7.92972 317.712 -7.93825 314.462 -7.95532 311.212C-7.95532 307.963 -7.95532 304.713 -7.95532 301.463C-7.95532 298.222 -7.95532 294.977 -7.95532 291.727C-7.95532 288.486 -7.96385 285.24 -7.98092 281.991C-7.98092 278.75 -7.98092 275.504 -7.98092 272.254C-7.98092 269.013 -7.98945 265.773 -8.00651 262.532C-8.00651 259.282 -8.00651 256.036 -8.00651 252.796C-8.02358 249.546 -8.03211 246.296 -8.03211 243.046C-8.03211 239.805 -8.04064 236.56 -8.05771 233.31C-8.05771 230.051 -8.06624 226.797 -8.0833 223.547C-8.0833 220.288 -8.09183 217.029 -8.1089 213.771C-8.12596 210.512 -8.1345 207.253 -8.1345 203.994C-8.15156 200.726 -8.16862 197.459 -8.18569 194.191C-8.18569 190.914 -8.19422 187.638 -8.21129 184.361C-8.22835 181.085 -8.24541 177.799 -8.26248 174.504C-8.27954 171.219 -8.29661 167.924 -8.31367 164.621C-8.33074 161.318 -8.3478 158.005 -8.36487 154.684C-8.38193 151.354 -8.40753 148.015 -8.44166 144.667C-8.45872 141.301 -8.48432 137.926 -8.51845 134.542C-8.55258 131.114 -8.5867 127.658 -8.62083 124.176C-8.71597 117.54 -4.88287 111.484 1.11283 108.636C2.82451 107.823 4.53719 107.004 6.25087 106.177C11.2678 103.686 16.2763 101.169 21.2762 98.624C26.2761 96.0616 31.2759 93.4859 36.2758 90.8967C41.2757 88.2897 46.2756 85.6827 51.2755 83.0757C56.2584 80.4508 61.2497 77.8304 66.2496 75.2144C71.2495 72.5895 76.2494 69.9646 81.2493 67.3398C86.2492 64.7238 91.2406 62.1034 96.2234 59.4785C101.223 56.8715 106.223 54.2645 111.223 51.6575C116.223 49.0594 121.223 46.4658 126.223 43.8766C131.223 41.2964 136.231 38.725 141.248 36.1626C146.248 33.6181 151.256 31.087 156.273 28.5693C161.29 26.0694 166.307 23.5918 171.324 21.1365C176.341 18.717 181.367 16.3332 186.401 13.9851C191.452 11.7263 196.511 9.53436 201.58 7.40948C206.682 5.48993 211.801 3.73566 216.938 2.14642C220.874 1.31586 224.84 0.686951 228.835 0.259827C231.408 -0.0151978 234.003 -0.0153198 236.576 0.250244C240.717 0.677551 244.887 1.30963 249.087 2.14642C254.667 3.73566 260.273 5.48993 265.904 7.40948C271.553 9.53436 277.209 11.7263 282.875 13.9851C288.557 16.3332 294.248 18.717 299.948 21.1365C305.647 23.5918 311.347 26.0694 317.046 28.5693C322.763 31.087 328.471 33.6181 334.171 36.1626C339.887 38.725 345.604 41.2964 351.321 43.8766C357.037 46.4658 362.754 49.0594 368.47 51.6575C374.187 54.2645 379.912 56.8715 385.646 59.4785C391.362 62.1034 397.079 64.7238 402.796 67.3398C408.529 69.9646 414.254 72.5895 419.971 75.2144C425.688 77.8304 431.413 80.4508 437.146 83.0757C442.863 85.6827 448.58 88.2897 454.296 90.8967C460.03 93.4859 465.755 96.0616 471.472 98.624C477.171 101.169 482.879 103.686 488.596 106.177C490.929 107.168 493.262 108.148 495.595 109.119C501.701 111.661 505.753 117.563 505.848 124.176C505.882 127.658 505.916 131.114 505.95 134.542C505.984 137.926 506.01 141.301 506.027 144.667C506.061 148.015 506.087 151.354 506.104 154.684C506.121 158.005 506.138 161.318 506.155 164.621C506.172 167.924 506.189 171.219 506.206 174.504C506.224 177.799 506.241 181.085 506.258 184.361C506.275 187.638 506.283 190.914 506.283 194.191C506.3 197.459 506.317 200.726 506.334 203.994C506.334 207.253 506.343 210.512 506.36 213.771C506.377 217.029 506.386 220.288 506.386 223.547C506.403 226.797 506.411 230.051 506.411 233.31C506.428 236.56 506.437 239.805 506.437 243.046C506.437 246.296 506.445 249.546 506.462 252.796C506.462 256.036 506.462 259.282 506.462 262.532C506.479 265.773 506.488 269.013 506.488 272.254C506.488 275.504 506.488 278.75 506.488 281.991C506.505 285.24 506.514 288.486 506.514 291.727C506.514 294.977 506.514 298.222 506.514 301.463C506.514 304.713 506.514 307.963 506.514 311.212C506.531 314.462 506.539 317.712 506.539 320.962C506.539 324.221 506.539 327.48 506.539 330.738C506.539 333.997 506.539 337.256 506.539 340.515C506.539 343.773 506.539 347.037 506.539 350.304C506.539 353.581 506.531 356.858 506.514 360.134C506.514 363.411 506.514 366.692 506.514 369.978C506.514 373.263 506.514 376.558 506.514 379.861C506.514 383.165 506.514 386.472 506.514 389.785C506.496 393.115 506.488 396.45 506.488 399.789C506.488 403.146 506.479 406.516 506.462 409.9C506.462 413.328 506.454 416.779 506.437 420.252C506.437 426.826 502.436 432.721 496.377 435.27C494.227 436.175 492.077 437.088 489.927 438.01C484.432 440.43 478.937 442.872 473.443 445.336C467.948 447.836 462.453 450.344 456.958 452.862C451.464 455.398 445.96 457.933 440.448 460.469C434.954 463.022 429.459 465.571 423.964 468.116C418.469 470.669 412.975 473.223 407.48 475.776C401.985 478.321 396.49 480.865 390.995 483.41C385.501 485.954 380.006 488.494 374.511 491.03C369.016 493.557 363.522 496.079 358.027 498.597C352.532 501.106 347.037 503.605 341.543 506.096C336.048 508.578 330.553 511.047 325.058 513.502C319.563 515.922 314.077 518.332 308.6 520.734C303.105 523.082 297.618 525.399 292.141 527.685C286.663 529.881 281.194 532.01 275.733 534.073C270.273 535.939 264.821 537.648 259.377 539.202C255.232 540.016 251.092 540.631 246.958 541.047C244.442 541.3 241.907 541.299 239.391 541.041C235.332 540.626 231.277 540.013 227.227 539.202C221.955 537.648 216.682 535.939 211.409 534.073C206.17 532.01 200.931 529.881 195.692 527.685C190.454 525.399 185.215 523.082 179.976 520.734C174.737 518.332 169.507 515.922 164.285 513.502C159.063 511.047 153.833 508.578 148.594 506.096C143.373 503.605 138.151 501.106 132.929 498.597C127.707 496.079 122.486 493.557 117.264 491.03C112.025 488.494 106.795 485.954 101.573 483.41C96.3514 480.865 91.1297 478.321 85.9079 475.776C80.6862 473.223 75.4645 470.669 70.2427 468.116C65.021 465.571 59.7992 463.022 54.5775 460.469C49.3558 457.933 44.1426 455.398 38.9379 452.862C33.7162 450.344 28.4944 447.836 23.2727 445.336C18.0339 442.872 12.8036 440.43 7.5819 438.01C5.68474 437.154 3.7887 436.305 1.89379 435.464Z" fill="#A00E00" stroke="#9C0000" stroke-width="6" mask="url(#path-1-inside-1_433_46)"/>
</svg>
